<svg width="257" height="258" viewBox="0 0 257 258" fill="none" xmlns="http://www.w3.org/2000/svg">
<mask id="mask0_113_517" style="mask-type:alpha" maskUnits="userSpaceOnUse" x="0" y="0" width="257" height="258">
<circle cx="128.399" cy="128.75" r="126.628" fill="#C4C4C4" stroke="#F8BB54" stroke-width="3.54203"/>
</mask>
<g mask="url(#mask0_113_517)">
<path d="M-74.6191 54.1993C-74.6191 54.1993 -14.8293 43.1237 0.597289 4.35967C15.3507 -32.8 76.1244 -42.7883 76.1244 -42.7883" stroke="#F8BB54" stroke-width="1.65143" stroke-miterlimit="10"/>
<path d="M-74.6191 72.8304C-74.6191 72.8304 -1.26631 60.0474 17.6284 13.2614C35.6431 -31.4026 110.135 -42.7883 110.135 -42.7883" stroke="#F8BB54" stroke-width="1.65143" stroke-miterlimit="10"/>
<path d="M-74.6191 91.514C-74.6191 91.514 12.2447 76.9711 34.6077 22.2667C55.9355 -30.0568 144.145 -42.7883 144.145 -42.7883" stroke="#F8BB54" stroke-width="1.65143" stroke-miterlimit="10"/>
<path d="M-74.6191 110.146C-74.6191 110.146 25.8075 93.8948 51.6388 31.1686C76.2279 -28.6594 178.156 -42.7883 178.156 -42.7883" stroke="#F8BB54" stroke-width="1.65143" stroke-miterlimit="10"/>
<path d="M-74.6191 128.777C-74.6191 128.777 39.3702 110.819 68.67 40.1219C96.5201 -27.262 212.115 -42.7883 212.115 -42.7883" stroke="#F8BB54" stroke-width="1.65143" stroke-miterlimit="10"/>
<path d="M-74.6191 147.46C-74.6191 147.46 52.8812 127.794 85.6493 49.0753C116.864 -25.9166 246.125 -42.7883 246.125 -42.7883" stroke="#F8BB54" stroke-width="1.65143" stroke-miterlimit="10"/>
<path d="M-74.6191 166.092C-74.6191 166.092 66.444 144.665 102.68 58.029C137.157 -24.5192 280.135 -42.7883 280.135 -42.7883" stroke="#F8BB54" stroke-width="1.65143" stroke-miterlimit="10"/>
<path d="M-74.6191 184.723C-74.6191 184.723 80.0069 161.589 119.66 66.9308C157.449 -23.1218 314.146 -42.7883 314.146 -42.7883" stroke="#F8BB54" stroke-width="1.65143" stroke-miterlimit="10"/>
<path d="M-74.6191 203.407C-74.6191 203.407 93.5176 178.565 136.691 75.9358C177.742 -21.7763 348.105 -42.7883 348.105 -42.7883" stroke="#F8BB54" stroke-width="1.65143" stroke-miterlimit="10"/>
<path d="M-74.6191 222.037C-74.6191 222.037 107.081 195.489 153.67 84.8895C198.034 -20.3789 382.115 -42.7883 382.115 -42.7883" stroke="#F8BB54" stroke-width="1.65143" stroke-miterlimit="10"/>
<path d="M-74.6191 240.72C-74.6191 240.72 120.643 212.412 170.702 93.8428C218.326 -18.9816 416.125 -42.7883 416.125 -42.7883" stroke="#F8BB54" stroke-width="1.65143" stroke-miterlimit="10"/>
<path d="M-74.6191 259.354C-74.6191 259.354 134.154 229.336 187.681 102.797C238.619 -17.6357 450.135 -42.7883 450.135 -42.7883" stroke="#F8BB54" stroke-width="1.65143" stroke-miterlimit="10"/>
<path d="M-74.6191 277.983C-74.6191 277.983 147.717 246.26 204.712 111.698C258.911 -16.2384 484.145 -42.7883 484.145 -42.7883" stroke="#F8BB54" stroke-width="1.65143" stroke-miterlimit="10"/>
<path d="M-74.6191 296.666C-74.6191 296.666 161.28 263.183 221.743 120.703C279.203 -14.841 518.105 -42.7883 518.105 -42.7883" stroke="#F8BB54" stroke-width="1.65143" stroke-miterlimit="10"/>
<path d="M-74.6191 315.3C-74.6191 315.3 174.791 280.107 238.722 129.605C299.496 -13.4955 552.116 -42.7883 552.116 -42.7883" stroke="#F8BB54" stroke-width="1.65143" stroke-miterlimit="10"/>
<path d="M-74.6191 333.933C-74.6191 333.933 188.354 297.031 255.753 138.558C319.788 -12.0981 586.126 -42.7883 586.126 -42.7883" stroke="#F8BB54" stroke-width="1.65143" stroke-miterlimit="10"/>
<path d="M-74.6191 352.616C-74.6191 352.616 201.916 314.005 272.733 147.512C340.081 -10.7007 620.136 -42.7883 620.136 -42.7883" stroke="#F8BB54" stroke-width="1.65143" stroke-miterlimit="10"/>
<path d="M-74.6191 371.245C-74.6191 371.245 215.428 330.878 289.764 156.466C360.373 -9.3553 654.096 -42.7883 654.096 -42.7883" stroke="#F8BB54" stroke-width="1.65143" stroke-miterlimit="10"/>
</g>
</svg>
