<svg width="813" height="459" viewBox="0 0 813 459" fill="none" xmlns="http://www.w3.org/2000/svg">
<g filter="url(#filter0_d_113_509)">
<path d="M191.089 419.498C127.244 419.498 119.902 419.709 23.926 420.179L17.5361 422.42C27.7225 425.32 58.2886 433.5 68.995 433.5H744.341C750.5 433.5 762.972 430.843 774.094 428.13C785.679 425.303 795.804 422.42 795.804 422.42L789.412 420.179C397.428 419.744 260.686 419.498 191.089 419.498Z" fill="#404F65"/>
</g>
<path d="M702.398 0H110.594C105.826 0.00576243 101.257 1.90507 97.8895 5.27996C94.5224 8.65484 92.6338 13.2287 92.6391 17.996V409.211C92.6348 411.927 93.2468 414.608 94.4288 417.053H718.561C719.744 414.608 720.357 411.927 720.354 409.211V17.9918C720.358 13.2251 718.468 8.65215 715.101 5.27826C711.734 1.90436 707.165 0.00576267 702.398 0Z" fill="url(#paint0_linear_113_509)"/>
<path d="M406.495 11.9356C407.657 11.9356 408.599 10.9973 408.599 9.83985C408.599 8.68242 407.657 7.74414 406.495 7.74414C405.333 7.74414 404.39 8.68242 404.39 9.83985C404.39 10.9973 405.333 11.9356 406.495 11.9356Z" fill="#B0B5BD"/>
<path d="M191.089 419.498C127.244 419.498 119.902 419.709 23.926 420.179L17.5361 422.42C27.7225 425.32 58.2886 433.5 68.995 433.5H744.341C750.5 433.5 762.972 430.843 774.094 428.13C785.679 425.303 795.804 422.42 795.804 422.42L789.412 420.179C397.428 419.744 260.686 419.498 191.089 419.498Z" fill="#D5DAE1"/>
<path d="M794.497 416.698H18.9847C18.6887 416.699 18.3958 416.757 18.1225 416.871C17.8492 416.984 17.601 417.15 17.392 417.36C17.183 417.569 17.0174 417.818 16.9045 418.091C16.7916 418.365 16.7338 418.658 16.7343 418.954V420.395C16.7338 420.691 16.7916 420.984 16.9045 421.257C17.0174 421.531 17.183 421.779 17.392 421.989C17.601 422.198 17.8492 422.365 18.1225 422.479C18.3958 422.592 18.6887 422.65 18.9847 422.65H794.497C794.793 422.65 795.086 422.592 795.36 422.479C795.633 422.365 795.881 422.199 796.09 421.989C796.299 421.78 796.465 421.531 796.578 421.258C796.691 420.984 796.748 420.691 796.748 420.395V418.954C796.748 418.658 796.691 418.365 796.578 418.091C796.465 417.818 796.299 417.569 796.09 417.359C795.881 417.15 795.633 416.984 795.36 416.87C795.086 416.757 794.793 416.698 794.497 416.698" fill="#EEF0F3"/>
<path d="M462.61 416.606H350.433C356.405 419.192 362.844 420.528 369.352 420.531H443.696C450.203 420.525 456.641 419.19 462.613 416.606" fill="#D5DAE1"/>
<defs>
<filter id="filter0_d_113_509" x="0.361273" y="410.58" width="812.617" height="48.3519" filterUnits="userSpaceOnUse" color-interpolation-filters="sRGB">
<feFlood flood-opacity="0" result="BackgroundImageFix"/>
<feColorMatrix in="SourceAlpha" type="matrix" values="0 0 0 0 0 0 0 0 0 0 0 0 0 0 0 0 0 0 127 0" result="hardAlpha"/>
<feOffset dy="8.25714"/>
<feGaussianBlur stdDeviation="8.58743"/>
<feComposite in2="hardAlpha" operator="out"/>
<feColorMatrix type="matrix" values="0 0 0 0 0 0 0 0 0 0 0 0 0 0 0 0 0 0 0.13 0"/>
<feBlend mode="normal" in2="BackgroundImageFix" result="effect1_dropShadow_113_509"/>
<feBlend mode="normal" in="SourceGraphic" in2="effect1_dropShadow_113_509" result="shape"/>
</filter>
<linearGradient id="paint0_linear_113_509" x1="92.7854" y1="5.20009" x2="766.202" y2="346.789" gradientUnits="userSpaceOnUse">
<stop stop-color="#EEF0F3"/>
<stop offset="0.949398" stop-color="#D5DAE1"/>
</linearGradient>
</defs>
</svg>
