<svg width="155" height="34" viewBox="0 0 155 34" fill="none" xmlns="http://www.w3.org/2000/svg">
<mask id="mask0_93_116" style="mask-type:luminance" maskUnits="userSpaceOnUse" x="0" y="0" width="155" height="34">
<path d="M154.488 0H0.612793V33.42H154.488V0Z" fill="white"/>
</mask>
<g mask="url(#mask0_93_116)">
<path d="M147.647 32.8392H154.354C153.544 31.2799 152.455 29.5115 151.086 27.534C149.715 25.5563 148.348 23.3695 146.721 21.1447L153.684 11.3932H147.228L143.382 17.3393C141.545 14.6712 139.766 12.7872 136.728 11.5272L134.785 16.6206C136.977 17.8736 138.31 19.3505 139.643 21.5178C138.916 22.4093 138.174 23.3695 137.421 24.4011C136.666 25.4019 135.939 26.4191 135.24 27.4507C134.57 28.4513 133.942 29.4259 133.355 30.3743C132.768 31.3203 132.306 32.1427 131.97 32.8392H138.343C138.622 32.2807 138.944 31.6816 139.306 31.0422C139.697 30.4004 140.09 29.7611 140.481 29.1217C140.872 28.4513 141.277 27.7978 141.696 27.1583C142.144 26.5165 142.577 25.9318 142.996 25.4019C143.441 25.9604 143.889 26.5855 144.337 27.282C144.812 27.9499 145.258 28.6343 145.677 29.3285C146.096 29.9988 146.475 30.6524 146.809 31.2918C147.145 31.905 147.425 32.4208 147.647 32.8392Z" fill="#FFB800"/>
<path d="M136.728 11.5272C136.771 11.5439 134.853 16.6593 134.853 16.6593C132.976 15.8486 131.121 15.6751 129.117 15.9814V32.8391H122.855V11.9553C123.976 11.5646 125.293 11.2023 126.805 10.8665C130.072 10.0938 133.607 10.315 136.728 11.5272Z" fill="#009EAD"/>
<path d="M0.612793 21.7129C0.612793 20.1142 0.867285 18.6128 1.37359 17.2088C1.90867 15.7786 2.66946 14.5428 3.65616 13.5039C4.64303 12.4366 5.839 11.5946 7.2489 10.9779C8.65647 10.3611 10.2638 10.0529 12.066 10.0529C13.2502 10.0529 14.3345 10.1644 15.3188 10.3897C16.3055 10.5865 17.2636 10.8807 18.1933 11.2744L16.8833 16.2838C16.2912 16.0584 15.6445 15.864 14.9384 15.6955C14.2346 15.5271 13.4452 15.444 12.5725 15.444C10.7131 15.444 9.31986 16.0204 8.39018 17.1708C7.48909 18.3212 7.0373 19.8367 7.0373 21.7177C7.0373 23.71 7.4605 25.2541 8.30458 26.3475C9.17725 27.4409 10.6847 27.9889 12.827 27.9889C13.5878 27.9889 14.4033 27.9177 15.2783 27.7778C16.1509 27.6379 16.9546 27.4125 17.687 27.1042L18.5738 32.2393C17.8414 32.5476 16.926 32.8156 15.8276 33.0385C14.7291 33.2615 13.5165 33.3754 12.1945 33.3754C10.1663 33.3754 8.41878 33.0812 6.95401 32.4907C5.48943 31.874 4.27684 31.0462 3.32089 30.0073C2.39138 28.9684 1.70171 27.7469 1.2501 26.3452C0.826717 24.9149 0.615116 23.3708 0.615116 21.7154L0.612793 21.7129Z" fill="#009EAD"/>
<path d="M30.8226 33.2413C28.9868 33.2127 27.4895 33.0148 26.3309 32.6479C25.2007 32.281 24.2971 31.7735 23.6199 31.1255C22.969 30.4487 22.5185 29.6457 22.2633 28.714C22.0369 27.7563 21.9248 26.684 21.9248 25.4998V1.01504L28.2381 0V24.2322C28.2381 24.7969 28.281 25.3045 28.3645 25.7548C28.4503 26.205 28.6052 26.5864 28.8295 26.8961C29.0845 27.2058 29.4373 27.4609 29.8881 27.6562C30.3409 27.8539 30.9466 27.9802 31.7095 28.0374L30.8202 33.239L30.8226 33.2413Z" fill="#009EAD"/>
<path d="M45.7832 11.3225C46.8596 11.0122 48.2493 10.7305 49.9502 10.4753C51.6508 10.1937 53.4353 10.0529 55.3059 10.0529C57.1766 10.0529 58.7768 10.3057 60.0255 10.8142C61.3004 11.2939 62.3075 11.9859 63.0442 12.8903C63.7809 13.7948 64.3049 14.8664 64.6181 16.1097C64.9291 17.3532 65.0846 18.7349 65.0846 20.2599V32.8392H58.7505V21.0212C58.7505 18.988 58.4801 17.5489 57.942 16.7016C57.4037 15.8545 56.3966 15.432 54.9231 15.432C54.4686 15.432 53.9879 15.4606 53.4784 15.5155C52.9689 15.5443 52.5144 15.5872 52.1173 15.642V32.8392H45.7832V11.3225Z" fill="#009EAD"/>
<path d="M80.231 21.7129C80.231 20.1142 80.4854 18.6128 80.9919 17.2088C81.5272 15.7786 82.2882 14.5428 83.2752 13.5039C84.2623 12.4366 85.4584 11.5946 86.8688 10.9779C88.2768 10.3611 89.8845 10.0529 91.6872 10.0529C92.8718 10.0529 93.9562 10.1644 94.9433 10.3897C95.9301 10.5865 96.8886 10.8807 97.8161 11.2744L96.5058 16.2838C95.9135 16.0584 95.2667 15.864 94.5603 15.6955C93.8563 15.5271 93.0667 15.444 92.1939 15.444C90.334 15.444 88.938 16.0204 88.008 17.1708C87.1067 18.3212 86.6547 19.8367 86.6547 21.7177C86.6547 23.71 87.0781 25.2541 87.9224 26.3475C88.7952 27.4409 90.3031 27.9889 92.4436 27.9889C93.2047 27.9889 94.0229 27.9177 94.8955 27.7778C95.7684 27.6379 96.5723 27.4125 97.3048 27.1042L98.192 32.2393C97.4594 32.5476 96.5438 32.8156 95.4451 33.0385C94.3462 33.2639 93.1332 33.3754 91.8109 33.3754C89.7823 33.3754 88.0343 33.0812 86.5691 32.4907C85.1042 31.874 83.8913 31.0462 82.9351 30.0073C82.0053 28.9684 81.3154 27.7469 80.8636 26.3452C80.4402 24.9149 80.231 23.3708 80.231 21.7154V21.7129Z" fill="#009EAD"/>
<path d="M76.2099 32.8369H69.9102V11.3932H76.2099V32.8392V32.8369Z" fill="#009EAD"/>
<path d="M75.6473 6.79281C76.3796 6.11067 76.7458 5.18676 76.7458 4.02111C76.7458 2.85547 76.3796 1.94593 75.6473 1.29249C74.9435 0.610344 74.1033 0.268066 73.1268 0.268066C72.1503 0.268066 71.2982 0.610344 70.5658 1.29249C69.862 1.94593 69.5078 2.85547 69.5078 4.02111C69.5078 5.18676 69.8597 6.11067 70.5658 6.79281C71.2982 7.44625 72.1503 7.77416 73.1268 7.77416C74.1033 7.77416 74.9435 7.44625 75.6473 6.79281Z" fill="#009EAD"/>
<path d="M40.6899 32.8392H34.3901V11.3932H40.6899V32.8392Z" fill="#009EAD"/>
<path d="M40.1277 6.79281C40.8601 6.11067 41.2263 5.18676 41.2263 4.02111C41.2263 2.85547 40.8601 1.94593 40.1277 1.29249C39.4239 0.610344 38.5838 0.268066 37.6073 0.268066C36.6308 0.268066 35.7787 0.610344 35.0463 1.29249C34.3425 1.94593 33.9883 2.85547 33.9883 4.02111C33.9883 5.18676 34.3402 6.11067 35.0463 6.79281C35.7787 7.44625 36.6308 7.77416 37.6073 7.77416C38.5838 7.77416 39.4239 7.44625 40.1277 6.79281Z" fill="#009EAD"/>
<path d="M108.913 28.5634C109.529 28.5634 110.117 28.5491 110.678 28.5205C111.238 28.4919 111.687 28.4514 112.023 28.394V23.6657C111.771 23.6108 111.392 23.5535 110.888 23.4986C110.383 23.4437 109.922 23.4151 109.5 23.4151C108.913 23.4151 108.351 23.458 107.82 23.5417C107.316 23.5965 106.868 23.7231 106.476 23.9188C106.083 24.1144 105.776 24.3793 105.552 24.7135C105.329 25.0477 105.217 25.4677 105.217 25.969C105.217 26.9453 105.538 27.6278 106.183 28.0192C106.856 28.382 107.766 28.5634 108.915 28.5634H108.913ZM108.408 10.3209C110.257 10.3209 111.797 10.5309 113.029 10.9486C114.262 11.3664 115.243 11.9678 115.971 12.7483C116.725 13.5289 117.258 14.4788 117.568 15.5934C117.875 16.7104 118.029 17.9516 118.029 19.317V32.287C117.132 32.4827 115.888 32.7046 114.291 32.9577C112.694 33.2369 110.762 33.3754 108.494 33.3754C107.066 33.3754 105.764 33.2488 104.586 32.9983C103.437 32.7477 102.444 32.3418 101.602 31.7857C100.762 31.2009 100.117 30.4467 99.6695 29.5254C99.2222 28.6042 98.9961 27.475 98.9961 26.1361C98.9961 24.7971 99.2483 23.7659 99.7528 22.8733C100.284 21.9806 100.986 21.2693 101.854 20.7394C102.723 20.2097 103.718 19.8324 104.838 19.6104C105.959 19.3599 107.121 19.2333 108.325 19.2333C109.139 19.2333 109.853 19.2764 110.466 19.3599C111.111 19.4147 111.628 19.4984 112.023 19.6104V19.0257C112.023 17.9659 111.699 17.1139 111.057 16.4741C110.412 15.8322 109.293 15.5123 107.697 15.5123C106.633 15.5123 105.583 15.5957 104.546 15.7628C103.51 15.9013 102.613 16.1113 101.857 16.3907L101.059 11.3687C101.423 11.2565 101.871 11.1444 102.404 11.0345C102.966 10.8962 103.565 10.784 104.21 10.7005C104.855 10.5883 105.526 10.5046 106.228 10.4498C106.956 10.3663 107.685 10.3232 108.413 10.3232L108.408 10.3209Z" fill="#009EAD"/>
</g>
</svg>
